<svg width="1440" height="721" viewBox="0 0 1440 721" fill="none" xmlns="http://www.w3.org/2000/svg">
<path fill-rule="evenodd" clip-rule="evenodd" d="M1440 0H2.57492e-05V720.967V721H0.0107489C0.0106751 720.989 0.010637 720.977 0.0106345 720.965C0.0505535 720.958 0.202798 720.925 0.466401 720.868C13.3085 718.098 290.448 658.32 720 658.32C1179.56 658.32 1432.31 719.118 1439.83 720.927C1439.94 720.954 1440 720.968 1440 720.968V0ZM0.0106345 720.965C0.00319797 720.967 -0.000340382 720.968 2.57492e-05 720.967C0.000357367 720.967 0.00389204 720.966 0.0106344 720.964C0.0106344 720.965 0.0106345 720.965 0.0106345 720.965Z" fill="url(#paint0_linear_1980_1857)"/>
<defs>
<linearGradient id="paint0_linear_1980_1857" x1="0" y1="0" x2="1520.48" y2="273.323" gradientUnits="userSpaceOnUse">
<stop stop-color="#07283F"/>
<stop offset="0.483559" stop-color="#0B1D29"/>
<stop offset="1" stop-color="#092335"/>
</linearGradient>
</defs>
</svg>
