<svg width="11" height="11" viewBox="0 0 11 11" fill="none" xmlns="http://www.w3.org/2000/svg">
<path d="M3.38462 8.10526C3.38462 8.10526 7.33333 8.68421 9.02564 10.4211H9.58974C9.9013 10.4211 10.1538 10.1619 10.1538 9.8421V6.33195C10.6404 6.20342 11 5.75005 11 5.21053C11 4.67101 10.6404 4.21763 10.1538 4.08911V0.578947C10.1538 0.259206 9.9013 0 9.58974 0H9.02564C7.33333 1.73684 3.38462 2.31579 3.38462 2.31579H1.12821C0.505114 2.31579 0 2.8342 0 3.47368V6.94737C0 7.58687 0.505114 8.10526 1.12821 8.10526H1.69231L2.25641 11H3.38462V8.10526ZM4.51282 3.27754C4.89827 3.19266 5.37449 3.07533 5.88884 2.92005C6.83551 2.63429 8.03846 2.18415 9.02564 1.49055V8.93049C8.03846 8.23692 6.83551 7.78678 5.88884 7.50102C5.37449 7.34574 4.89827 7.22839 4.51282 7.14352V3.27754ZM1.12821 3.47368H3.38462V6.94737H1.12821V3.47368Z" fill="black"/>
</svg>
