<svg width="12" height="10" viewBox="0 0 12 10" fill="none" xmlns="http://www.w3.org/2000/svg">
<path d="M6 0C8.10873 0 9.81818 1.64948 9.81818 3.68421C9.81818 3.74395 9.81671 3.80336 9.81382 3.86241C11.0872 4.29474 12 5.46558 12 6.84211C12 8.58616 10.5347 10 8.72727 10H3.27273C1.46525 10 0 8.58616 0 6.84211C0 5.46558 0.912796 4.29474 2.1862 3.86241C2.18329 3.80336 2.18182 3.74395 2.18182 3.68421C2.18182 1.64948 3.89128 0 6 0ZM6 1.05263C4.49377 1.05263 3.27273 2.23083 3.27273 3.68421C3.27273 3.72709 3.27378 3.76981 3.27588 3.81234L3.31452 4.59521L2.54827 4.85537C1.6824 5.14932 1.09091 5.94153 1.09091 6.84211C1.09091 8.00479 2.06774 8.94737 3.27273 8.94737H8.72727C9.93224 8.94737 10.9091 8.00479 10.9091 6.84211C10.9091 5.67895 9.93273 4.73684 8.72727 4.73684C7.76345 4.73684 6.94565 5.33984 6.65684 6.17616L5.62167 5.84321C6.05482 4.58868 7.28182 3.68421 8.72727 3.68421C8.72727 2.23083 7.50622 1.05263 6 1.05263Z" fill="black"/>
</svg>
