<svg width="16" height="17" viewBox="0 0 16 17" fill="none" xmlns="http://www.w3.org/2000/svg">
<path d="M13.7732 5.59091H14.5455C15.3488 5.59091 16 6.24213 16 7.04545V9.95455C16 10.7579 15.3488 11.4091 14.5455 11.4091H13.7732C13.4153 14.2791 10.967 16.5 8 16.5V15.0455C10.41 15.0455 12.3636 13.0918 12.3636 10.6818V6.31818C12.3636 3.90821 10.41 1.95455 8 1.95455C5.59003 1.95455 3.63636 3.90821 3.63636 6.31818V11.4091H1.45455C0.651222 11.4091 0 10.7579 0 9.95455V7.04545C0 6.24213 0.651222 5.59091 1.45455 5.59091H2.22683C2.58472 2.72087 5.033 0.5 8 0.5C10.967 0.5 13.4153 2.72087 13.7732 5.59091ZM1.45455 7.04545V9.95455H2.18182V7.04545H1.45455ZM13.8182 7.04545V9.95455H14.5455V7.04545H13.8182ZM4.91596 11.2527L5.68697 10.0191C6.35753 10.4391 7.1504 10.6818 8 10.6818C8.8496 10.6818 9.64247 10.4391 10.313 10.0191L11.0841 11.2527C10.19 11.8127 9.1328 12.1364 8 12.1364C6.8672 12.1364 5.81005 11.8127 4.91596 11.2527Z" fill="#1A75BB"/>
</svg>
