<svg width="82" height="130" viewBox="0 0 82 130" fill="none" xmlns="http://www.w3.org/2000/svg">
<path d="M18.061 115.519C45.371 115.519 67.498 92.9587 67.498 65.1436C67.498 37.3284 45.371 14.7676 18.061 14.7676C-9.24895 14.7676 -31.3759 37.3284 -31.3759 65.1436C-31.3759 92.9587 -9.24895 115.519 18.061 115.519Z" stroke="#39CF2B" stroke-opacity="0.8" stroke-width="0.75188"/>
<path d="M18.5 128.871C53.2908 128.871 81.4789 100.131 81.4789 64.6962C81.4789 29.2619 53.2908 0.521081 18.5 0.521081C-16.2908 0.521081 -44.4789 29.2619 -44.4789 64.6962C-44.4789 100.131 -16.2908 128.871 18.5 128.871Z" stroke="#39CF2B" stroke-opacity="0.8" stroke-width="0.957837"/>
<path d="M18.3427 100.263C37.4597 100.263 52.9486 84.4706 52.9486 65C52.9486 45.5294 37.4597 29.7368 18.3427 29.7368C-0.774261 29.7368 -16.2632 45.5294 -16.2632 65C-16.2632 84.4706 -0.774261 100.263 18.3427 100.263Z" stroke="#39CF2B" stroke-opacity="0.8" stroke-width="0.526316"/>
</svg>
