<svg width="11" height="10" viewBox="0 0 11 10" fill="none" xmlns="http://www.w3.org/2000/svg">
<path d="M1.13402 6.66667V7.77778C1.13402 8.36356 1.67268 8.88889 2.26804 8.88889H3.96907V10H2.26804C1.01544 10 0 9.00506 0 7.77778V6.66667H1.13402ZM8.50516 3.88889L11 10H9.77809L9.09711 8.33333H6.77804L6.0982 10H4.87686L7.37113 3.88889H8.50516ZM7.93814 5.49178L7.23108 7.22222H8.64407L7.93814 5.49178ZM0 0H3.40206C4.34154 0 5.10309 0.746194 5.10309 1.66667C5.10309 2.09377 4.93911 2.48334 4.6695 2.77827C4.93934 3.07269 5.10309 3.46205 5.10309 3.88889C5.10309 4.80939 4.34154 5.55556 3.40206 5.55556H0V0ZM3.40206 3.33333H1.13402V4.44444H3.40206C3.71521 4.44444 3.96907 4.19572 3.96907 3.88889C3.96907 3.58333 3.71392 3.33333 3.40206 3.33333ZM7.93814 0C9.19073 0 10.2062 0.994922 10.2062 2.22222V3.33333H9.07217V2.22222C9.07217 1.60857 8.56446 1.11111 7.93814 1.11111H6.23711V0H7.93814ZM3.40206 1.11111H1.13402V2.22222H3.40206C3.71521 2.22222 3.96907 1.97349 3.96907 1.66667C3.96907 1.36111 3.71392 1.11111 3.40206 1.11111Z" fill="black"/>
</svg>
