<svg width="797" height="753" viewBox="0 0 797 753" fill="none" xmlns="http://www.w3.org/2000/svg">
<path d="M171.678 207.967C172.023 207.967 172.303 207.687 172.303 207.342C172.303 206.997 172.023 206.717 171.678 206.717C171.333 206.717 171.053 206.997 171.053 207.342C171.053 207.687 171.333 207.967 171.678 207.967Z" fill="#1A75BB" fill-opacity="0.5"/>
<path d="M169.178 207.967C169.523 207.967 169.803 207.687 169.803 207.342C169.803 206.997 169.523 206.717 169.178 206.717C168.833 206.717 168.553 206.997 168.553 207.342C168.553 207.687 168.833 207.967 169.178 207.967Z" fill="#1A75BB" fill-opacity="0.5"/>
<path d="M166.678 207.967C167.023 207.967 167.303 207.687 167.303 207.342C167.303 206.997 167.023 206.717 166.678 206.717C166.333 206.717 166.053 206.997 166.053 207.342C166.053 207.687 166.333 207.967 166.678 207.967Z" fill="#1A75BB" fill-opacity="0.5"/>
<path d="M200.428 210.467H164.178C163.833 210.467 163.553 210.187 163.553 209.842C163.553 209.497 163.833 209.217 164.178 209.217H200.428C200.773 209.217 201.053 209.497 201.053 209.842C201.053 210.187 200.773 210.467 200.428 210.467Z" fill="#1A75BB" fill-opacity="0.5"/>
<path d="M164.178 229.217C163.833 229.217 163.553 228.937 163.553 228.592V206.092C163.553 205.058 164.394 204.217 165.428 204.217H199.178C200.211 204.217 201.053 205.058 201.053 206.092V217.342C201.053 217.687 200.773 217.967 200.428 217.967C200.083 217.967 199.803 217.687 199.803 217.342V206.092C199.803 205.748 199.523 205.467 199.178 205.467H165.428C165.083 205.467 164.803 205.748 164.803 206.092V228.592C164.803 228.937 164.523 229.217 164.178 229.217Z" fill="#1A75BB" fill-opacity="0.5"/>
<path d="M189.803 240.467H175.428C175.083 240.467 174.803 240.187 174.803 239.842C174.803 239.497 175.083 239.217 175.428 239.217H176.678C177.711 239.217 178.553 238.376 178.553 237.342V236.092C178.553 235.747 178.833 235.467 179.178 235.467C179.523 235.467 179.803 235.747 179.803 236.092V237.342C179.803 238.046 179.569 238.694 179.176 239.217H185.429C185.036 238.694 184.803 238.046 184.803 237.342V233.592C184.803 233.247 185.083 232.967 185.428 232.967C185.773 232.967 186.053 233.247 186.053 233.592V237.342C186.053 238.376 186.894 239.217 187.928 239.217H189.803C190.148 239.217 190.428 239.497 190.428 239.842C190.428 240.187 190.148 240.467 189.803 240.467Z" fill="#1A75BB" fill-opacity="0.5"/>
<path d="M185.428 234.217H165.428C164.394 234.217 163.553 233.376 163.553 232.342V228.592C163.553 228.247 163.833 227.967 164.178 227.967H181.678C182.023 227.967 182.303 228.247 182.303 228.592C182.303 228.937 182.023 229.217 181.678 229.217H164.803V232.342C164.803 232.686 165.083 232.967 165.428 232.967H185.428C185.773 232.967 186.053 233.247 186.053 233.592C186.053 233.937 185.773 234.217 185.428 234.217Z" fill="#1A75BB" fill-opacity="0.5"/>
<path d="M185.428 219.217H184.178C183.833 219.217 183.553 218.937 183.553 218.592C183.553 218.247 183.833 217.967 184.178 217.967H185.428C185.773 217.967 186.053 218.247 186.053 218.592C186.053 218.937 185.773 219.217 185.428 219.217Z" fill="#1A75BB" fill-opacity="0.5"/>
<path d="M196.678 214.217H184.178C183.833 214.217 183.553 213.937 183.553 213.592C183.553 213.247 183.833 212.967 184.178 212.967H196.678C197.023 212.967 197.303 213.247 197.303 213.592C197.303 213.937 197.023 214.217 196.678 214.217Z" fill="#1A75BB" fill-opacity="0.5"/>
<path d="M196.678 216.717H184.178C183.833 216.717 183.553 216.437 183.553 216.092C183.553 215.747 183.833 215.467 184.178 215.467H196.678C197.023 215.467 197.303 215.747 197.303 216.092C197.303 216.437 197.023 216.717 196.678 216.717Z" fill="#1A75BB" fill-opacity="0.5"/>
<path d="M171.678 219.217H167.928C167.583 219.217 167.303 218.937 167.303 218.592C167.303 218.247 167.583 217.967 167.928 217.967H171.678C172.023 217.967 172.303 218.247 172.303 218.592C172.303 218.937 172.023 219.217 171.678 219.217Z" fill="#1A75BB" fill-opacity="0.5"/>
<path d="M180.428 214.217H167.928C167.583 214.217 167.303 213.937 167.303 213.592C167.303 213.247 167.583 212.967 167.928 212.967H180.428C180.773 212.967 181.053 213.247 181.053 213.592C181.053 213.937 180.773 214.217 180.428 214.217Z" fill="#1A75BB" fill-opacity="0.5"/>
<path d="M180.428 216.717H167.928C167.583 216.717 167.303 216.437 167.303 216.092C167.303 215.747 167.583 215.467 167.928 215.467H180.428C180.773 215.467 181.053 215.747 181.053 216.092C181.053 216.437 180.773 216.717 180.428 216.717Z" fill="#1A75BB" fill-opacity="0.5"/>
<path d="M192.303 235.467C187.478 235.467 183.553 231.541 183.553 226.717C183.553 221.893 187.478 217.967 192.303 217.967C193.993 217.967 195.631 218.449 197.043 219.361C197.333 219.548 197.415 219.934 197.228 220.224C197.04 220.512 196.655 220.599 196.364 220.409C195.156 219.629 193.751 219.217 192.303 219.217C188.166 219.217 184.803 222.581 184.803 226.717C184.803 230.853 188.166 234.217 192.303 234.217C196.439 234.217 199.803 230.853 199.803 226.717C199.803 225.914 199.676 225.126 199.429 224.371C199.321 224.042 199.5 223.689 199.828 223.582C200.155 223.472 200.509 223.653 200.616 223.979C200.905 224.862 201.053 225.782 201.053 226.717C201.053 231.541 197.128 235.467 192.303 235.467Z" fill="#1A75BB" fill-opacity="0.5"/>
<path fill-rule="evenodd" clip-rule="evenodd" d="M521.382 221.761C521.54 221.804 521.689 221.878 521.819 221.978C521.949 222.079 522.058 222.204 522.139 222.346C522.221 222.489 522.273 222.646 522.294 222.809C522.315 222.972 522.303 223.137 522.26 223.296L514.76 250.796C514.673 251.116 514.463 251.388 514.175 251.553C513.887 251.718 513.545 251.761 513.225 251.674C512.905 251.587 512.633 251.376 512.468 251.089C512.303 250.801 512.26 250.459 512.347 250.139L519.847 222.639C519.89 222.481 519.964 222.332 520.064 222.202C520.165 222.072 520.29 221.963 520.432 221.882C520.575 221.8 520.732 221.748 520.895 221.727C521.058 221.706 521.223 221.718 521.382 221.761ZM525.17 227.084C525.405 226.85 525.722 226.719 526.054 226.719C526.385 226.719 526.703 226.85 526.937 227.084L535.687 235.834C535.921 236.069 536.052 236.386 536.052 236.717C536.052 237.049 535.921 237.366 535.687 237.601L526.937 246.351C526.822 246.474 526.684 246.572 526.531 246.64C526.378 246.709 526.212 246.745 526.044 246.748C525.877 246.751 525.71 246.721 525.554 246.658C525.399 246.595 525.257 246.501 525.139 246.383C525.02 246.264 524.926 246.122 524.863 245.967C524.801 245.811 524.77 245.644 524.773 245.477C524.776 245.309 524.812 245.143 524.881 244.99C524.949 244.837 525.047 244.699 525.17 244.584L533.037 236.717L525.17 228.851C524.936 228.616 524.805 228.299 524.805 227.967C524.805 227.636 524.936 227.319 525.17 227.084ZM509.437 227.084C509.671 227.319 509.802 227.636 509.802 227.967C509.802 228.299 509.671 228.616 509.437 228.851L501.57 236.717L509.437 244.584C509.658 244.821 509.778 245.134 509.772 245.458C509.766 245.782 509.635 246.091 509.406 246.32C509.177 246.549 508.868 246.68 508.544 246.686C508.221 246.692 507.907 246.572 507.67 246.351L498.92 237.601C498.686 237.366 498.555 237.049 498.555 236.717C498.555 236.386 498.686 236.069 498.92 235.834L507.67 227.084C507.905 226.85 508.222 226.719 508.554 226.719C508.885 226.719 509.203 226.85 509.437 227.084Z" fill="#1A75BB" fill-opacity="0.5"/>
<path d="M287.414 525.939C283.081 525.939 279.637 529.384 279.637 533.717C279.637 538.051 283.081 541.495 287.414 541.495C291.748 541.495 295.192 538.051 295.192 533.717C295.192 529.384 291.748 525.939 287.414 525.939ZM287.414 539.273C284.303 539.273 281.859 536.828 281.859 533.717C281.859 530.606 284.303 528.162 287.414 528.162C290.526 528.162 292.97 530.606 292.97 533.717C292.97 536.828 290.526 539.273 287.414 539.273Z" fill="#1A75BB" fill-opacity="0.5"/>
<path d="M303.748 530.051L300.637 529.051L299.97 527.384L301.525 524.495C301.859 523.828 301.748 522.939 301.192 522.384L298.525 519.717C297.97 519.162 297.081 519.051 296.414 519.384L293.525 520.939L291.859 520.273L290.859 517.162C290.637 516.495 289.97 515.939 289.192 515.939H285.414C284.637 515.939 283.97 516.495 283.859 517.273L282.859 520.384C282.192 520.495 281.637 520.717 281.081 521.051L278.192 519.495C277.525 519.162 276.637 519.273 276.081 519.828L273.414 522.495C272.859 523.051 272.748 523.939 273.081 524.606L274.525 527.384C274.303 527.939 274.081 528.606 273.859 529.162L270.748 530.162C270.081 530.384 269.525 531.051 269.525 531.828V535.606C269.525 536.384 270.081 537.051 270.859 537.273L273.97 538.273L274.637 539.939L273.081 542.828C272.748 543.495 272.859 544.384 273.414 544.939L276.081 547.606C276.637 548.162 277.525 548.273 278.192 547.939L281.081 546.384L282.748 547.051L283.748 550.273C283.97 550.939 284.637 551.495 285.414 551.495H289.192C289.97 551.495 290.637 550.939 290.859 550.273L291.859 547.051L293.525 546.384L296.414 547.939C297.081 548.273 297.97 548.162 298.525 547.606L301.192 544.939C301.748 544.384 301.859 543.495 301.525 542.828L299.97 539.939L300.637 538.273L303.859 537.273C304.525 537.051 305.081 536.384 305.081 535.606V531.828C305.081 531.051 304.525 530.273 303.748 530.051ZM302.859 535.273L298.859 536.495L298.748 537.051L297.748 539.384L297.414 539.939L299.414 543.606L297.192 545.828L293.525 543.828L292.97 544.162C292.192 544.606 291.414 544.939 290.637 545.162L290.081 545.273L288.859 549.273H285.748L284.525 545.273L283.97 545.162L281.637 544.162L281.081 543.828L277.414 545.828L275.192 543.606L277.192 539.939L276.859 539.384C276.414 538.606 276.081 537.828 275.859 537.051L275.748 536.495L271.748 535.273V532.162L275.525 531.051L275.748 530.495C275.97 529.606 276.303 528.828 276.748 528.051L277.081 527.495L275.192 523.828L277.414 521.606L280.97 523.606L281.525 523.273C282.303 522.828 283.081 522.495 283.97 522.273L284.525 522.051L285.748 518.162H288.859L290.081 522.051L290.637 522.273C291.414 522.495 292.192 522.828 292.97 523.273L293.525 523.606L297.192 521.606L299.414 523.828L297.414 527.495L297.748 528.051C298.192 528.828 298.525 529.606 298.748 530.384L298.859 530.939L302.859 532.162V535.273Z" fill="#1A75BB" fill-opacity="0.5"/>
<path fill-rule="evenodd" clip-rule="evenodd" d="M307.238 238.169C339.457 249.083 342.986 305.522 376.619 310.62C411.66 315.93 434.104 261.822 469.533 262.766C507.234 263.77 572.465 278.333 567.344 315.698C560.534 365.382 465.43 357.931 449.951 405.631C437.687 443.424 509.468 469.897 504.514 509.321C500.348 542.483 462.126 568.419 428.969 572.621C395.192 576.902 362.203 554.244 337.858 530.443C318.169 511.194 318.277 480.48 308.425 454.768C303.313 441.427 304.527 424.642 293.732 415.285C266.32 391.525 219.756 392.875 201.117 361.755C181.388 328.817 168.975 277.887 193.988 248.758C219.116 219.495 270.705 225.795 307.238 238.169Z" fill="#E3EFFB"/>
</svg>
