<svg width="479" height="496" viewBox="0 0 479 496" fill="none" xmlns="http://www.w3.org/2000/svg">
<path d="M12.6777 78.9668C13.0229 78.9668 13.3027 78.687 13.3027 78.3418C13.3027 77.9966 13.0229 77.7168 12.6777 77.7168C12.3326 77.7168 12.0527 77.9966 12.0527 78.3418C12.0527 78.687 12.3326 78.9668 12.6777 78.9668Z" fill="#1A75BB" fill-opacity="0.5"/>
<path d="M10.1777 78.9668C10.5229 78.9668 10.8027 78.687 10.8027 78.3418C10.8027 77.9966 10.5229 77.7168 10.1777 77.7168C9.83256 77.7168 9.55273 77.9966 9.55273 78.3418C9.55273 78.687 9.83256 78.9668 10.1777 78.9668Z" fill="#1A75BB" fill-opacity="0.5"/>
<path d="M7.67773 78.9668C8.02291 78.9668 8.30273 78.687 8.30273 78.3418C8.30273 77.9966 8.02291 77.7168 7.67773 77.7168C7.33256 77.7168 7.05273 77.9966 7.05273 78.3418C7.05273 78.687 7.33256 78.9668 7.67773 78.9668Z" fill="#1A75BB" fill-opacity="0.5"/>
<path d="M41.4277 81.4668H5.17773C4.83273 81.4668 4.55273 81.1868 4.55273 80.8418C4.55273 80.4968 4.83273 80.2168 5.17773 80.2168H41.4277C41.7727 80.2168 42.0527 80.4968 42.0527 80.8418C42.0527 81.1868 41.7727 81.4668 41.4277 81.4668Z" fill="#1A75BB" fill-opacity="0.5"/>
<path d="M5.17773 100.217C4.83273 100.217 4.55273 99.9368 4.55273 99.5918V77.0918C4.55273 76.058 5.39398 75.2168 6.42773 75.2168H40.1777C41.2115 75.2168 42.0527 76.058 42.0527 77.0918V88.3418C42.0527 88.6868 41.7727 88.9668 41.4277 88.9668C41.0827 88.9668 40.8027 88.6868 40.8027 88.3418V77.0918C40.8027 76.748 40.5227 76.4668 40.1777 76.4668H6.42773C6.08273 76.4668 5.80273 76.748 5.80273 77.0918V99.5918C5.80273 99.9368 5.52273 100.217 5.17773 100.217Z" fill="#1A75BB" fill-opacity="0.5"/>
<path d="M30.8027 111.467H16.4277C16.0827 111.467 15.8027 111.187 15.8027 110.842C15.8027 110.497 16.0827 110.217 16.4277 110.217H17.6777C18.7115 110.217 19.5527 109.376 19.5527 108.342V107.092C19.5527 106.747 19.8327 106.467 20.1777 106.467C20.5227 106.467 20.8027 106.747 20.8027 107.092V108.342C20.8027 109.046 20.569 109.694 20.1765 110.217H26.429C26.0365 109.694 25.8027 109.046 25.8027 108.342V104.592C25.8027 104.247 26.0827 103.967 26.4277 103.967C26.7727 103.967 27.0527 104.247 27.0527 104.592V108.342C27.0527 109.376 27.894 110.217 28.9277 110.217H30.8027C31.1477 110.217 31.4277 110.497 31.4277 110.842C31.4277 111.187 31.1477 111.467 30.8027 111.467Z" fill="#1A75BB" fill-opacity="0.5"/>
<path d="M26.4277 105.217H6.42773C5.39398 105.217 4.55273 104.376 4.55273 103.342V99.5918C4.55273 99.2468 4.83273 98.9668 5.17773 98.9668H22.6777C23.0227 98.9668 23.3027 99.2468 23.3027 99.5918C23.3027 99.9368 23.0227 100.217 22.6777 100.217H5.80273V103.342C5.80273 103.686 6.08273 103.967 6.42773 103.967H26.4277C26.7727 103.967 27.0527 104.247 27.0527 104.592C27.0527 104.937 26.7727 105.217 26.4277 105.217Z" fill="#1A75BB" fill-opacity="0.5"/>
<path d="M26.4277 90.2168H25.1777C24.8327 90.2168 24.5527 89.9368 24.5527 89.5918C24.5527 89.2468 24.8327 88.9668 25.1777 88.9668H26.4277C26.7727 88.9668 27.0527 89.2468 27.0527 89.5918C27.0527 89.9368 26.7727 90.2168 26.4277 90.2168Z" fill="#1A75BB" fill-opacity="0.5"/>
<path d="M37.6777 85.2168H25.1777C24.8327 85.2168 24.5527 84.9368 24.5527 84.5918C24.5527 84.2468 24.8327 83.9668 25.1777 83.9668H37.6777C38.0227 83.9668 38.3027 84.2468 38.3027 84.5918C38.3027 84.9368 38.0227 85.2168 37.6777 85.2168Z" fill="#1A75BB" fill-opacity="0.5"/>
<path d="M37.6777 87.7168H25.1777C24.8327 87.7168 24.5527 87.4368 24.5527 87.0918C24.5527 86.7468 24.8327 86.4668 25.1777 86.4668H37.6777C38.0227 86.4668 38.3027 86.7468 38.3027 87.0918C38.3027 87.4368 38.0227 87.7168 37.6777 87.7168Z" fill="#1A75BB" fill-opacity="0.5"/>
<path d="M12.6777 90.2168H8.92773C8.58273 90.2168 8.30273 89.9368 8.30273 89.5918C8.30273 89.2468 8.58273 88.9668 8.92773 88.9668H12.6777C13.0227 88.9668 13.3027 89.2468 13.3027 89.5918C13.3027 89.9368 13.0227 90.2168 12.6777 90.2168Z" fill="#1A75BB" fill-opacity="0.5"/>
<path d="M21.4277 85.2168H8.92773C8.58273 85.2168 8.30273 84.9368 8.30273 84.5918C8.30273 84.2468 8.58273 83.9668 8.92773 83.9668H21.4277C21.7727 83.9668 22.0527 84.2468 22.0527 84.5918C22.0527 84.9368 21.7727 85.2168 21.4277 85.2168Z" fill="#1A75BB" fill-opacity="0.5"/>
<path d="M21.4277 87.7168H8.92773C8.58273 87.7168 8.30273 87.4368 8.30273 87.0918C8.30273 86.7468 8.58273 86.4668 8.92773 86.4668H21.4277C21.7727 86.4668 22.0527 86.7468 22.0527 87.0918C22.0527 87.4368 21.7727 87.7168 21.4277 87.7168Z" fill="#1A75BB" fill-opacity="0.5"/>
<path d="M33.3027 106.467C28.4777 106.467 24.5527 102.541 24.5527 97.7168C24.5527 92.893 28.4777 88.9668 33.3027 88.9668C34.9927 88.9668 36.6315 89.4493 38.0427 90.3605C38.3327 90.548 38.4152 90.9343 38.2277 91.2243C38.0402 91.5118 37.6552 91.5993 37.364 91.4093C36.1565 90.6293 34.7515 90.2168 33.3027 90.2168C29.1665 90.2168 25.8027 93.5805 25.8027 97.7168C25.8027 101.853 29.1665 105.217 33.3027 105.217C37.439 105.217 40.8027 101.853 40.8027 97.7168C40.8027 96.9143 40.6765 96.1255 40.429 95.3705C40.3215 95.0418 40.5002 94.6893 40.8277 94.5818C41.1552 94.4718 41.509 94.653 41.6165 94.9793C41.9052 95.8618 42.0527 96.7818 42.0527 97.7168C42.0527 102.541 38.1277 106.467 33.3027 106.467Z" fill="#1A75BB" fill-opacity="0.5"/>
<path fill-rule="evenodd" clip-rule="evenodd" d="M362.382 92.7608C362.54 92.8038 362.689 92.8777 362.819 92.9782C362.949 93.0786 363.058 93.2037 363.139 93.3463C363.221 93.4888 363.273 93.6461 363.294 93.809C363.315 93.9719 363.303 94.1373 363.26 94.2958L355.76 121.796C355.673 122.116 355.463 122.388 355.175 122.553C354.887 122.718 354.545 122.761 354.225 122.674C353.905 122.587 353.633 122.376 353.468 122.089C353.303 121.801 353.26 121.459 353.347 121.139L360.847 93.6391C360.89 93.4806 360.964 93.3322 361.064 93.2022C361.165 93.0723 361.29 92.9634 361.432 92.8818C361.575 92.8003 361.732 92.7476 361.895 92.7268C362.058 92.7061 362.223 92.7176 362.382 92.7608ZM366.17 98.0841C366.405 97.85 366.722 97.7186 367.054 97.7186C367.385 97.7186 367.703 97.85 367.937 98.0841L376.687 106.834C376.921 107.068 377.052 107.386 377.052 107.717C377.052 108.049 376.921 108.366 376.687 108.601L367.937 117.351C367.822 117.474 367.684 117.572 367.531 117.64C367.378 117.709 367.212 117.745 367.044 117.748C366.877 117.751 366.71 117.721 366.554 117.658C366.399 117.595 366.257 117.501 366.139 117.383C366.02 117.264 365.926 117.122 365.863 116.967C365.801 116.811 365.77 116.644 365.773 116.477C365.776 116.309 365.812 116.143 365.881 115.99C365.949 115.837 366.047 115.699 366.17 115.584L374.037 107.717L366.17 99.8508C365.936 99.6164 365.805 99.2987 365.805 98.9675C365.805 98.6362 365.936 98.3185 366.17 98.0841ZM350.437 98.0841C350.671 98.3185 350.802 98.6362 350.802 98.9675C350.802 99.2987 350.671 99.6164 350.437 99.8508L342.57 107.717L350.437 115.584C350.658 115.821 350.778 116.134 350.772 116.458C350.766 116.782 350.635 117.091 350.406 117.32C350.177 117.549 349.868 117.68 349.544 117.686C349.221 117.692 348.907 117.572 348.67 117.351L339.92 108.601C339.686 108.366 339.555 108.049 339.555 107.717C339.555 107.386 339.686 107.068 339.92 106.834L348.67 98.0841C348.905 97.85 349.222 97.7186 349.554 97.7186C349.885 97.7186 350.203 97.85 350.437 98.0841Z" fill="#1A75BB" fill-opacity="0.5"/>
<path d="M128.414 396.939C124.081 396.939 120.637 400.384 120.637 404.717C120.637 409.051 124.081 412.495 128.414 412.495C132.748 412.495 136.192 409.051 136.192 404.717C136.192 400.384 132.748 396.939 128.414 396.939ZM128.414 410.273C125.303 410.273 122.859 407.828 122.859 404.717C122.859 401.606 125.303 399.162 128.414 399.162C131.526 399.162 133.97 401.606 133.97 404.717C133.97 407.828 131.526 410.273 128.414 410.273Z" fill="#1A75BB" fill-opacity="0.5"/>
<path d="M144.748 401.051L141.637 400.051L140.97 398.384L142.525 395.495C142.859 394.828 142.748 393.939 142.192 393.384L139.525 390.717C138.97 390.162 138.081 390.051 137.414 390.384L134.525 391.939L132.859 391.273L131.859 388.162C131.637 387.495 130.97 386.939 130.192 386.939H126.414C125.637 386.939 124.97 387.495 124.859 388.273L123.859 391.384C123.192 391.495 122.637 391.717 122.081 392.051L119.192 390.495C118.525 390.162 117.637 390.273 117.081 390.828L114.414 393.495C113.859 394.051 113.748 394.939 114.081 395.606L115.525 398.384C115.303 398.939 115.081 399.606 114.859 400.162L111.748 401.162C111.081 401.384 110.525 402.051 110.525 402.828V406.606C110.525 407.384 111.081 408.051 111.859 408.273L114.97 409.273L115.637 410.939L114.081 413.828C113.748 414.495 113.859 415.384 114.414 415.939L117.081 418.606C117.637 419.162 118.525 419.273 119.192 418.939L122.081 417.384L123.748 418.051L124.748 421.273C124.97 421.939 125.637 422.495 126.414 422.495H130.192C130.97 422.495 131.637 421.939 131.859 421.273L132.859 418.051L134.525 417.384L137.414 418.939C138.081 419.273 138.97 419.162 139.525 418.606L142.192 415.939C142.748 415.384 142.859 414.495 142.525 413.828L140.97 410.939L141.637 409.273L144.859 408.273C145.525 408.051 146.081 407.384 146.081 406.606V402.828C146.081 402.051 145.525 401.273 144.748 401.051ZM143.859 406.273L139.859 407.495L139.748 408.051L138.748 410.384L138.414 410.939L140.414 414.606L138.192 416.828L134.525 414.828L133.97 415.162C133.192 415.606 132.414 415.939 131.637 416.162L131.081 416.273L129.859 420.273H126.748L125.525 416.273L124.97 416.162L122.637 415.162L122.081 414.828L118.414 416.828L116.192 414.606L118.192 410.939L117.859 410.384C117.414 409.606 117.081 408.828 116.859 408.051L116.748 407.495L112.748 406.273V403.162L116.525 402.051L116.748 401.495C116.97 400.606 117.303 399.828 117.748 399.051L118.081 398.495L116.192 394.828L118.414 392.606L121.97 394.606L122.525 394.273C123.303 393.828 124.081 393.495 124.97 393.273L125.525 393.051L126.748 389.162H129.859L131.081 393.051L131.637 393.273C132.414 393.495 133.192 393.828 133.97 394.273L134.525 394.606L138.192 392.606L140.414 394.828L138.414 398.495L138.748 399.051C139.192 399.828 139.525 400.606 139.748 401.384L139.859 401.939L143.859 403.162V406.273Z" fill="#1A75BB" fill-opacity="0.5"/>
<path fill-rule="evenodd" clip-rule="evenodd" d="M148.238 109.169C180.457 120.083 183.986 176.522 217.619 181.62C252.66 186.93 275.104 132.822 310.533 133.766C348.234 134.77 413.465 149.333 408.344 186.698C401.534 236.382 306.43 228.931 290.951 276.631C278.687 314.424 350.468 340.897 345.514 380.321C341.348 413.483 303.126 439.419 269.969 443.621C236.192 447.902 203.203 425.244 178.858 401.443C159.169 382.194 159.277 351.48 149.425 325.768C144.313 312.427 145.527 295.642 134.732 286.285C107.32 262.525 60.7565 263.875 42.1167 232.755C22.388 199.817 9.97547 148.887 34.9882 119.758C60.1165 90.4947 111.705 96.7945 148.238 109.169Z" fill="#E3EFFB"/>
</svg>
