<svg width="15" height="15" viewBox="0 0 15 15" fill="none" xmlns="http://www.w3.org/2000/svg">
<path d="M11.7994 9.83518L10.8173 8.8531L11.7994 7.87102C13.1554 6.51504 13.1554 4.31655 11.7994 2.96056C10.4434 1.60458 8.24491 1.60458 6.88894 2.96056L5.90684 3.94266L4.92475 2.96056L5.90684 1.97847C7.80526 0.080092 10.8831 0.080092 12.7815 1.97847C14.6798 3.87686 14.6798 6.95477 12.7815 8.8531L11.7994 9.83518ZM9.83519 11.7994L8.85311 12.7815C6.95477 14.6799 3.87686 14.6799 1.97847 12.7815C0.080092 10.8831 0.080092 7.80525 1.97847 5.90684L2.96056 4.92475L3.94265 5.90684L2.96056 6.88893C1.60458 8.2449 1.60458 10.4434 2.96056 11.7994C4.31655 13.1554 6.51505 13.1554 7.87102 11.7994L8.85311 10.8173L9.83519 11.7994ZM9.34415 4.4337L10.3262 5.4158L5.41579 10.3263L4.4337 9.34414L9.34415 4.4337Z" fill="#1A75BB"/>
</svg>
