<svg width="138" height="32" viewBox="0 0 138 32" fill="none" xmlns="http://www.w3.org/2000/svg">
<path d="M13.6523 31H8.94531V6.42969H0.585938V2.44531H21.9922V6.42969H13.6523V31ZM34.5117 8.96875C36.4388 8.96875 38.0924 9.36589 39.4727 10.1602C40.8529 10.9544 41.9141 12.0807 42.6562 13.5391C43.3984 14.9974 43.7695 16.7422 43.7695 18.7734V21.2344H29.3359C29.388 23.3307 29.9479 24.9453 31.0156 26.0781C32.0964 27.2109 33.6068 27.7773 35.5469 27.7773C36.9271 27.7773 38.1641 27.6471 39.2578 27.3867C40.3646 27.1133 41.5039 26.7161 42.6758 26.1953V29.9258C41.5951 30.4336 40.4948 30.8047 39.375 31.0391C38.2552 31.2734 36.9141 31.3906 35.3516 31.3906C33.2292 31.3906 31.3607 30.9805 29.7461 30.1602C28.1445 29.3268 26.888 28.0898 25.9766 26.4492C25.0781 24.8086 24.6289 22.7708 24.6289 20.3359C24.6289 17.9141 25.0391 15.8568 25.8594 14.1641C26.6797 12.4714 27.832 11.1823 29.3164 10.2969C30.8008 9.41146 32.5326 8.96875 34.5117 8.96875ZM34.5117 12.4258C33.0664 12.4258 31.8945 12.8945 30.9961 13.832C30.1107 14.7695 29.5898 16.1432 29.4336 17.9531H39.2773C39.2643 16.8724 39.082 15.9154 38.7305 15.082C38.3919 14.2487 37.8711 13.5977 37.168 13.1289C36.4779 12.6602 35.5924 12.4258 34.5117 12.4258ZM53.5352 0.609375V15.2969C53.5352 15.9609 53.5091 16.6901 53.457 17.4844C53.4049 18.2656 53.3529 19.0013 53.3008 19.6914H53.3984C53.737 19.2357 54.1406 18.7018 54.6094 18.0898C55.0911 17.4779 55.5469 16.944 55.9766 16.4883L62.5781 9.37891H67.8516L59.1992 18.6758L68.418 31H63.0273L56.1133 21.5078L53.5352 23.7148V31H48.9453V0.609375H53.5352ZM83.8672 15.4922H94.5312V29.8281C93.0339 30.3229 91.4844 30.707 89.8828 30.9805C88.2812 31.2539 86.4844 31.3906 84.4922 31.3906C81.5885 31.3906 79.1276 30.8177 77.1094 29.6719C75.1042 28.513 73.5807 26.8398 72.5391 24.6523C71.4974 22.4518 70.9766 19.8021 70.9766 16.7031C70.9766 13.7214 71.556 11.1367 72.7148 8.94922C73.8737 6.7487 75.5599 5.04948 77.7734 3.85156C79.987 2.64062 82.6693 2.03516 85.8203 2.03516C87.3698 2.03516 88.8672 2.19141 90.3125 2.50391C91.7708 2.80339 93.1055 3.22005 94.3164 3.75391L92.6758 7.62109C91.7122 7.16536 90.6315 6.78125 89.4336 6.46875C88.2357 6.15625 86.9922 6 85.7031 6C83.6589 6 81.8945 6.44271 80.4102 7.32812C78.9388 8.21354 77.806 9.46354 77.0117 11.0781C76.2174 12.6797 75.8203 14.5742 75.8203 16.7617C75.8203 18.8841 76.1393 20.7461 76.7773 22.3477C77.4154 23.9492 78.4115 25.1992 79.7656 26.0977C81.1328 26.9831 82.8971 27.4258 85.0586 27.4258C86.1393 27.4258 87.0573 27.3672 87.8125 27.25C88.5677 27.1328 89.2643 27.0026 89.9023 26.8594V19.4961H83.8672V15.4922ZM111.855 8.96875C112.22 8.96875 112.617 8.98828 113.047 9.02734C113.477 9.06641 113.848 9.11849 114.16 9.18359L113.73 13.4805C113.457 13.4023 113.118 13.3438 112.715 13.3047C112.324 13.2656 111.973 13.2461 111.66 13.2461C110.84 13.2461 110.059 13.3828 109.316 13.6562C108.574 13.9167 107.917 14.3203 107.344 14.8672C106.771 15.401 106.322 16.0716 105.996 16.8789C105.671 17.6862 105.508 18.6237 105.508 19.6914V31H100.898V9.37891H104.492L105.117 13.1875H105.332C105.762 12.4193 106.296 11.7161 106.934 11.0781C107.572 10.4401 108.301 9.93229 109.121 9.55469C109.954 9.16406 110.866 8.96875 111.855 8.96875ZM137.305 20.1406C137.305 21.9375 137.07 23.5326 136.602 24.9258C136.133 26.319 135.449 27.4974 134.551 28.4609C133.652 29.4115 132.572 30.1406 131.309 30.6484C130.046 31.1432 128.62 31.3906 127.031 31.3906C125.547 31.3906 124.186 31.1432 122.949 30.6484C121.712 30.1406 120.638 29.4115 119.727 28.4609C118.828 27.4974 118.132 26.319 117.637 24.9258C117.142 23.5326 116.895 21.9375 116.895 20.1406C116.895 17.7578 117.305 15.7396 118.125 14.0859C118.958 12.4193 120.143 11.1497 121.68 10.2773C123.216 9.40495 125.046 8.96875 127.168 8.96875C129.16 8.96875 130.918 9.40495 132.441 10.2773C133.965 11.1497 135.156 12.4193 136.016 14.0859C136.875 15.7526 137.305 17.7708 137.305 20.1406ZM121.621 20.1406C121.621 21.7161 121.81 23.0638 122.188 24.1836C122.578 25.3034 123.177 26.1628 123.984 26.7617C124.792 27.3477 125.833 27.6406 127.109 27.6406C128.385 27.6406 129.427 27.3477 130.234 26.7617C131.042 26.1628 131.634 25.3034 132.012 24.1836C132.389 23.0638 132.578 21.7161 132.578 20.1406C132.578 18.5651 132.389 17.2305 132.012 16.1367C131.634 15.0299 131.042 14.1901 130.234 13.6172C129.427 13.0312 128.379 12.7383 127.09 12.7383C125.189 12.7383 123.802 13.3763 122.93 14.6523C122.057 15.9284 121.621 17.7578 121.621 20.1406Z" fill="url(#paint0_linear_1932_2083)"/>
<defs>
<linearGradient id="paint0_linear_1932_2083" x1="0" y1="15" x2="199" y2="15" gradientUnits="userSpaceOnUse">
<stop stop-color="#0071E3"/>
<stop offset="1" stop-color="#39CF2B"/>
</linearGradient>
</defs>
</svg>
